<?xml version="1.0" standalone="no"?>
<!DOCTYPE svg PUBLIC "-//W3C//DTD SVG 20010904//EN"
 "http://www.w3.org/TR/2001/REC-SVG-20010904/DTD/svg10.dtd">
<svg version="1.0" xmlns="http://www.w3.org/2000/svg"
 width="970.000000pt" height="852.000000pt" viewBox="0 0 970.000000 852.000000"
 preserveAspectRatio="xMidYMid meet">

<g transform="translate(0.000000,852.000000) scale(0.100000,-0.100000)"
fill="#000000" stroke="none">
<path d="M4705 8249 c-1375 -97 -2607 -933 -3206 -2174 -403 -837 -495 -1786
-258 -2675 35 -130 114 -371 135 -413 l15 -27 604 0 c410 0 605 3 605 10 0 6
-20 47 -45 91 -242 426 -361 953 -334 1479 49 958 595 1820 1444 2282 450 245
940 354 1468 327 465 -24 903 -161 1295 -403 719 -445 1188 -1176 1297 -2021
19 -145 22 -476 5 -625 -42 -385 -157 -746 -340 -1067 l-41 -73 610 0 610 0
15 28 c7 15 34 88 59 162 329 986 261 2017 -193 2945 -690 1410 -2176 2265
-3745 2154z m195 -529 l0 -118 -31 -26 c-42 -35 -82 -34 -120 4 -20 19 -29 38
-27 52 4 33 34 35 42 4 9 -38 41 -51 73 -31 26 17 26 18 21 125 -6 111 2 141
29 119 9 -8 13 -44 13 -129z m382 99 c84 -60 77 -200 -13 -253 -36 -21 -113
-20 -151 2 -109 64 -85 242 37 275 34 9 96 -3 127 -24z m278 -36 c0 -48 -39
-256 -50 -267 -7 -7 -13 -7 -21 1 -8 8 -5 47 11 145 25 147 25 148 46 148 9 0
14 -10 14 -27z m-1286 -12 c8 -12 76 -328 76 -352 0 -19 -24 -27 -34 -10 -8
12 -76 331 -76 353 0 19 25 25 34 9z m1540 -123 c27 -65 53 -118 56 -118 4 0
15 36 25 80 21 92 37 122 56 103 9 -9 5 -41 -22 -145 -45 -174 -52 -175 -121
-15 -29 64 -55 114 -58 110 -4 -5 -13 -30 -19 -58 -26 -107 -32 -125 -46 -125
-26 0 -26 19 0 122 38 152 45 170 62 166 9 -2 37 -52 67 -120z m-1996 -20 c2
-12 -16 -23 -72 -45 -42 -15 -76 -31 -76 -34 0 -4 7 -23 15 -42 l15 -36 50 21
c49 20 85 19 78 -4 -3 -7 -27 -21 -54 -32 -27 -11 -51 -21 -52 -22 -9 -6 21
-74 32 -74 7 0 40 11 74 25 75 31 84 31 80 4 -2 -17 -22 -29 -92 -56 -49 -19
-92 -31 -96 -26 -14 15 -102 252 -98 264 4 13 156 78 178 76 8 -1 16 -10 18
-19z m2592 -91 c0 -7 -33 -85 -72 -174 -54 -121 -78 -163 -90 -163 -10 0 -18
6 -18 14 0 20 140 330 153 338 14 8 27 1 27 -15z m-2934 -49 c4 -7 0 -16 -10
-22 -65 -39 -65 -32 -2 -150 31 -59 54 -111 51 -116 -16 -26 -38 -1 -91 99
l-57 110 -39 -20 c-39 -20 -58 -18 -58 6 0 12 163 104 187 105 6 0 15 -5 19
-12z m-343 -210 c18 -12 74 -53 126 -91 83 -61 92 -71 78 -84 -13 -13 -19 -11
-57 16 -42 30 -43 30 -72 13 -46 -27 -50 -35 -38 -87 12 -54 1 -81 -24 -55
-16 18 -70 275 -62 295 7 20 12 19 49 -7z m3770 -12 c64 -26 115 -116 67 -116
-11 0 -20 4 -20 9 0 5 -11 23 -25 39 -71 84 -206 13 -179 -94 10 -42 46 -73
95 -83 46 -9 45 -35 -1 -39 -107 -8 -179 135 -116 229 42 62 112 83 179 55z
m-4029 -155 c7 -11 -10 -30 -66 -76 -27 -20 -48 -43 -48 -49 0 -7 11 -23 25
-36 l25 -23 46 36 c26 20 51 34 55 31 19 -11 7 -34 -31 -65 -22 -18 -40 -35
-40 -38 0 -3 11 -19 24 -36 l24 -30 60 48 c33 26 67 47 76 47 33 0 14 -29 -59
-90 -75 -61 -76 -62 -97 -44 -31 29 -168 200 -167 210 0 13 139 124 154 124 8
0 16 -4 19 -9z m4291 -31 c4 -6 -12 -32 -34 -59 l-40 -48 44 -36 c24 -20 48
-37 54 -37 5 0 25 19 44 42 24 28 39 39 51 35 9 -4 16 -10 16 -15 0 -12 -180
-222 -191 -222 -25 0 -18 33 15 74 l37 44 -48 42 -48 42 -41 -48 c-38 -44 -64
-52 -64 -20 0 17 171 216 186 216 7 0 16 -5 19 -10z m-4534 -269 c19 -20 29
-40 29 -60 0 -28 3 -30 56 -41 50 -11 76 -31 60 -47 -3 -4 -36 -1 -72 6 -59
11 -68 10 -85 -5 -19 -17 -19 -19 17 -55 23 -24 34 -43 31 -53 -4 -9 -10 -16
-14 -16 -5 0 -55 46 -111 103 l-103 103 22 28 c54 69 123 84 170 37z m4875
-54 c3 -8 -23 -73 -57 -145 -47 -99 -67 -132 -81 -132 -24 0 -23 21 3 72 l21
40 -33 34 -32 33 -46 -18 c-25 -10 -52 -16 -58 -14 -30 11 -8 33 60 61 39 17
99 41 132 55 70 30 84 32 91 14z m-5129 -174 c3 -7 -11 -20 -30 -29 -108 -52
-78 -203 41 -204 35 0 49 6 73 29 16 17 29 40 29 54 0 32 23 52 38 34 13 -16
2 -65 -23 -104 -23 -35 -98 -66 -138 -57 -52 11 -84 31 -106 67 -27 44 -28
121 -2 161 36 54 107 83 118 49z m5341 -68 c59 -77 69 -105 40 -105 -7 0 -24
14 -38 32 l-27 32 -93 -72 c-90 -70 -113 -82 -125 -63 -7 12 9 27 105 102 44
34 80 66 80 72 0 6 -10 21 -21 33 -22 24 -20 54 3 54 7 -1 42 -39 76 -85z"/>
<path d="M5119 7771 c-67 -67 -16 -181 81 -181 23 0 42 10 67 35 33 33 35 39
30 82 -7 63 -40 93 -103 93 -37 0 -51 -6 -75 -29z"/>
<path d="M3140 7189 c12 -41 13 -41 36 -25 18 14 18 15 -6 35 -34 28 -40 26
-30 -10z"/>
<path d="M2523 6776 l-28 -25 37 -38 c38 -37 38 -37 57 -18 31 32 35 61 12 84
-27 27 -44 26 -78 -3z"/>
<path d="M7397 6688 c-27 -10 -27 -11 -11 -29 22 -25 29 -24 42 6 18 40 17 41
-31 23z"/>
<path d="M4699 6903 c-264 -272 -472 -546 -589 -781 -66 -132 -85 -184 -121
-325 -27 -105 -31 -140 -32 -252 0 -147 12 -223 54 -344 74 -214 178 -375 478
-736 391 -470 484 -623 537 -885 14 -69 16 -116 11 -247 -4 -115 -2 -165 6
-170 21 -13 186 188 319 388 252 379 344 711 293 1052 -21 141 -56 245 -134
403 -81 161 -155 277 -345 537 -248 339 -346 505 -407 684 -75 224 -60 458 46
693 18 41 31 78 29 82 -14 23 -50 -2 -145 -99z"/>
<path d="M3293 5621 c-219 -269 -368 -543 -448 -822 -78 -271 -88 -582 -26
-859 62 -283 188 -561 382 -848 l85 -127 639 -3 638 -2 -6 117 c-20 362 -162
653 -567 1168 -293 372 -309 393 -385 508 -93 143 -167 290 -201 403 -25 81
-28 104 -28 254 -1 133 3 176 17 222 35 110 -5 106 -100 -11z"/>
<path d="M6083 5294 c-6 -17 -5 -19 52 -183 189 -542 171 -1031 -55 -1508 -84
-176 -200 -358 -348 -545 -32 -40 -61 -79 -66 -85 -6 -10 123 -13 632 -13
l640 0 32 88 c235 649 28 1343 -596 2002 -114 120 -263 260 -277 260 -4 0 -10
-7 -14 -16z"/>
<path d="M570 2870 l0 -30 4410 0 4410 0 0 30 0 30 -4410 0 -4410 0 0 -30z"/>
<path d="M1955 2703 c50 -7 82 -23 94 -49 8 -18 11 -207 11 -650 0 -734 8
-683 -105 -697 -16 -2 65 -4 180 -4 116 0 199 1 185 4 -55 8 -71 14 -90 33
-20 20 -20 36 -20 690 l0 670 180 0 c212 0 242 -8 295 -77 54 -71 70 -131 70
-263 0 -127 -14 -182 -65 -264 -44 -70 -87 -86 -227 -86 l-113 0 0 190 c0 120
-4 190 -10 190 -6 0 -10 -135 -10 -385 0 -250 4 -385 10 -385 6 0 10 70 10
189 l0 189 148 4 c135 3 152 5 204 30 70 33 145 106 178 173 21 42 25 64 25
145 0 88 -3 101 -33 162 -36 74 -96 133 -170 170 -46 23 -53 23 -412 24 -201
1 -351 0 -335 -3z"/>
<path d="M3510 2691 c-98 -32 -163 -72 -235 -145 -117 -119 -180 -253 -205
-437 -22 -158 4 -306 82 -467 41 -87 62 -116 126 -181 117 -117 216 -161 362
-161 146 0 266 53 375 164 39 40 85 98 104 129 106 180 135 443 70 653 -71
231 -240 410 -429 453 -69 16 -188 12 -250 -8z m264 -27 c112 -55 208 -190
262 -369 22 -74 27 -116 32 -238 5 -166 -6 -258 -45 -376 -36 -108 -80 -186
-142 -254 -100 -108 -217 -141 -336 -96 -84 31 -187 135 -237 240 -200 413
-59 1015 262 1120 47 16 143 3 204 -27z"/>
<path d="M4173 2700 c56 -10 94 -32 108 -63 5 -12 97 -316 204 -676 107 -360
197 -657 200 -659 3 -3 7 -3 9 -1 2 2 38 121 81 264 42 143 80 266 84 273 4 7
35 -82 70 -200 99 -332 102 -341 111 -332 4 5 92 290 194 634 103 344 193 643
201 666 22 57 56 87 113 95 26 3 -284 6 -688 6 -406 1 -713 -3 -687 -7z m401
-15 c18 -9 39 -28 48 -43 16 -27 228 -726 228 -753 0 -19 -81 -292 -89 -302
-4 -4 -76 226 -161 510 -84 285 -159 530 -167 545 -7 15 -23 34 -35 42 -21 15
-17 16 61 16 53 0 94 -5 115 -15z m487 -6 c24 -24 23 -28 -25 -179 l-33 -105
-26 80 c-14 44 -26 73 -26 66 -1 -8 49 -182 110 -385 l110 -371 -27 -95 c-15
-52 -30 -99 -34 -103 -7 -8 -320 1026 -320 1055 0 7 7 24 16 36 14 20 23 22
125 22 97 0 111 -2 130 -21z m348 2 c16 -16 18 -26 10 -59 -7 -34 -199 -681
-231 -782 -11 -33 -15 -22 -94 243 l-82 277 42 140 c43 139 62 174 101 191 11
4 68 8 128 8 93 1 110 -2 126 -18z"/>
<path d="M5960 2696 c-95 -27 -164 -70 -246 -152 -68 -66 -90 -97 -128 -175
-63 -131 -80 -206 -80 -364 0 -153 20 -239 87 -375 58 -119 171 -234 281 -286
69 -33 89 -38 175 -42 73 -3 112 0 157 13 199 57 351 218 424 450 34 108 39
310 11 430 -54 228 -204 415 -391 490 -58 23 -227 30 -290 11z m245 -27 c119
-55 227 -211 276 -399 32 -125 38 -342 11 -470 -46 -222 -149 -390 -284 -462
-34 -18 -59 -23 -123 -23 -68 0 -88 5 -134 29 -129 67 -230 226 -278 440 -20
88 -22 327 -4 411 55 263 179 443 341 496 43 14 142 3 195 -22z"/>
<path d="M6611 2700 c64 -11 95 -34 114 -83 8 -23 100 -327 204 -675 104 -349
192 -636 195 -639 3 -4 7 -4 9 -2 2 2 39 123 81 269 43 146 81 269 84 274 3 5
42 -113 87 -263 45 -150 85 -272 90 -272 5 0 26 55 46 123 300 1001 362 1203
377 1223 20 28 52 43 102 48 19 2 -296 4 -700 4 -404 0 -714 -3 -689 -7z m406
-20 c18 -10 38 -29 46 -42 8 -13 63 -186 122 -386 l108 -363 -43 -147 c-24
-81 -46 -152 -49 -159 -3 -6 -78 229 -166 524 -131 440 -164 541 -186 564
l-27 29 81 0 c64 0 89 -4 114 -20z m482 1 c18 -18 19 -24 7 -73 -25 -101 -59
-207 -66 -203 -4 2 -15 34 -25 70 -9 36 -21 68 -25 70 -5 3 -5 -7 -1 -22 5
-16 56 -188 115 -384 l106 -356 -29 -97 c-16 -54 -32 -100 -34 -103 -6 -6 0
-24 -172 551 -80 269 -145 498 -145 509 0 11 7 29 17 39 14 15 32 18 125 18
93 0 111 -3 127 -19z m342 9 c12 -7 19 -21 19 -40 0 -23 -207 -741 -237 -820
-8 -23 -14 -4 -98 278 l-75 254 30 101 c48 158 59 185 91 212 29 23 37 25 140
25 61 0 119 -5 130 -10z"/>
<path d="M570 1150 l0 -30 4410 0 4410 0 0 30 0 30 -4410 0 -4410 0 0 -30z"/>
<path d="M3055 1034 c44 -34 409 -206 548 -259 685 -260 1432 -321 2152 -174
195 40 419 105 602 174 139 53 504 225 548 259 18 14 -181 15 -1925 15 -1744
0 -1943 -1 -1925 -15z"/>
</g>
</svg>
